# xmcd
#
# Track frame offsets: 
#        150
#        17550
#        31237
#        44172
#        60713
#        71102
#        83616
#        96520
#        110854
#        123040
#        139164
#        153255
#        163079
#        178494
#        191060
#        203279
#
# Disc length: 2880 seconds
#
# Revision: 0
# Processed by: cddbd v1.5.2PL0 Copyright (c) Steve Scherf et al.
# Submitted via: ExactAudioCopy v0.99pb4
#
DISCID=e30b3e10
DTITLE=The Hot Tamales - Restless Road
DYEAR=1999
DGENRE=Blues
TTITLE0=Happy All The Time
TTITLE1=Vacation
TTITLE2=Mean Like That
TTITLE3=Outlaw
TTITLE4=Good Times Roll
TTITLE5=Restless Road
TTITLE6=Salty Dog
TTITLE7=When It's Time To Go
TTITLE8=Bring It On Home
TTITLE9=Sweet Pea
TTITLE10=Do The Do This
TTITLE11=The Elephant Song
TTITLE12=Big Refrigerator
TTITLE13=Tied Up On The Blues
TTITLE14=(Keep Your) Hands Off Her
TTITLE15=Jitterbug Swing
EXTD=
EXTT0=
EXTT1=
EXTT2=
EXTT3=
EXTT4=
EXTT5=
EXTT6=
EXTT7=
EXTT8=
EXTT9=
EXTT10=
EXTT11=
EXTT12=
EXTT13=
EXTT14=
EXTT15=
PLAYORDER=
